<?xml version="1.0" standalone="no"?><!DOCTYPE svg PUBLIC "-//W3C//DTD SVG 1.1//EN" "http://www.w3.org/Graphics/SVG/1.1/DTD/svg11.dtd"><svg t="1759749456747" class="icon" viewBox="0 0 1024 1024" version="1.1" xmlns="http://www.w3.org/2000/svg" p-id="4813" xmlns:xlink="http://www.w3.org/1999/xlink" width="32" height="32"><path d="M820.114286 840.594286h-616.228572c-49.371429 0-89.417143-40.96-89.417143-91.062857v-475.428572c0-50.102857 40.045714-90.88 89.417143-90.88h616.411429c49.371429 0 89.417143 40.777143 89.417143 90.88v475.428572c0 50.285714-40.228571 91.062857-89.6 91.062857z m-616.228572-620.617143c-29.257143 0-52.845714 24.32-52.845714 54.308571v475.428572c0 29.988571 23.771429 54.491429 52.845714 54.491428h616.411429c29.074286 0 52.845714-24.502857 52.845714-54.491428V274.285714c0-29.988571-23.771429-54.308571-52.845714-54.308571H203.885714z" fill="#ffffff" p-id="4814"></path><path d="M455.862857 398.994286c3.291429-0.548571 6.765714-0.914286 10.24-0.914286 6.948571 0 12.251429 1.28 15.725714 4.022857 3.474286 2.742857 5.302857 7.497143 5.302858 14.445714V623.542857c-2.011429 0.731429-4.571429 1.462857-7.862858 2.194286-3.108571 0.548571-6.582857 0.914286-10.24 0.914286-7.314286 0-12.617143-1.462857-16.091428-4.205715-3.291429-2.925714-4.937143-7.497143-4.937143-14.08v-80.822857h-99.84v96.182857c-2.011429 0.731429-4.571429 1.462857-7.68 2.194286-3.108571 0.548571-6.582857 0.914286-10.24 0.914286-7.497143 0-12.982857-1.462857-16.091429-4.205715-3.108571-2.925714-4.754286-7.497143-4.754285-14.08V400.64c2.011429-0.365714 4.571429-0.914286 7.68-1.462857s6.582857-0.914286 10.24-0.914286c6.948571 0 12.251429 1.28 15.725714 4.022857 3.474286 2.742857 5.302857 7.497143 5.302857 14.445715v78.994285h99.84v-94.902857c1.828571-0.731429 4.388571-1.097143 7.68-1.828571zM724.48 510.171429c0 19.931429-2.742857 37.12-8.228571 52.114285-5.485714 14.811429-13.348571 27.245714-23.405715 36.937143-10.24 9.874286-22.491429 17.188571-36.754285 21.942857-14.445714 4.754286-30.354286 7.314286-47.908572 7.314286-7.68 0-16.457143-0.365714-26.697143-1.097143s-19.931429-2.56-28.891428-5.668571c-10.971429-3.657143-16.457143-10.24-16.457143-19.565715V417.097143c0-4.022857 1.097143-7.314286 3.474286-9.691429s5.485714-4.205714 9.325714-5.302857c8.411429-2.742857 17.554286-4.388571 27.428571-5.302857s19.382857-1.28 28.525715-1.28c17.737143 0 34.011429 2.377143 48.822857 6.948571s27.428571 11.702857 37.851428 21.394286c10.422857 9.691429 18.651429 21.577143 24.32 35.84 5.668571 14.445714 8.594286 31.268571 8.594286 50.468572z m-39.497143 0.365714c0-14.445714-2.011429-27.062857-6.034286-37.485714-4.022857-10.422857-9.691429-19.017143-16.822857-25.6-7.131429-6.582857-15.542857-11.52-25.234285-14.811429-9.508571-3.108571-19.748571-4.754286-30.72-4.754286-12.8 0-23.405714 0.914286-31.634286 2.742857v162.377143c4.754286 1.28 10.057143 2.011429 16.091428 2.377143 5.851429 0.365714 11.885714 0.548571 17.737143 0.548572 24.868571 0 43.885714-7.131429 57.051429-21.577143 12.982857-14.262857 19.565714-35.657143 19.565714-63.817143z" fill="#ffffff" p-id="4815"></path></svg>