<?xml version="1.0" standalone="no"?><!DOCTYPE svg PUBLIC "-//W3C//DTD SVG 1.1//EN" "http://www.w3.org/Graphics/SVG/1.1/DTD/svg11.dtd"><svg t="1759745286067" class="icon" viewBox="0 0 1024 1024" version="1.1" xmlns="http://www.w3.org/2000/svg" p-id="4689" width="32" height="32" xmlns:xlink="http://www.w3.org/1999/xlink"><path d="M512 432a160 160 0 1 0 160 160 160 160 0 0 0-160-160z m0 256a96 96 0 1 1 96-96 96.2 96.2 0 0 1-96 96z" fill="#2c2c2c" p-id="4690"></path><path d="M768 288h-45.9l-68-113.4a96.7 96.7 0 0 0-82.3-46.6h-120A96.7 96.7 0 0 0 370 174.6L301.9 288H256a128.1 128.1 0 0 0-128 128v352a128.1 128.1 0 0 0 128 128h512a128.1 128.1 0 0 0 128-128V416a128.1 128.1 0 0 0-128-128z m-343.2-80a32.4 32.4 0 0 1 27.4-15.5h120a32.3 32.3 0 0 1 27.4 15.5l48.3 80.5H376.5z m407.2 560a64.1 64.1 0 0 1-64 64H256a64.1 64.1 0 0 1-64-64V416a64.1 64.1 0 0 1 64-64h512a64.1 64.1 0 0 1 64 64z" fill="#2c2c2c" p-id="4691"></path></svg>