<?xml version="1.0" standalone="no"?><!DOCTYPE svg PUBLIC "-//W3C//DTD SVG 1.1//EN" "http://www.w3.org/Graphics/SVG/1.1/DTD/svg11.dtd"><svg t="1759745765689" class="icon" viewBox="0 0 1024 1024" version="1.1" xmlns="http://www.w3.org/2000/svg" p-id="8794" xmlns:xlink="http://www.w3.org/1999/xlink" width="32" height="32"><path d="M495.939368 144.294175a325.470316 325.470316 0 0 0-58.403929 186.601544c0 180.637193 146.449965 327.087158 327.087157 327.087158 38.516772 0 76.081404-6.647018 111.490246-19.49193 23.390316-8.479439 45.774596 14.731228 36.450807 37.798176a422.121544 422.121544 0 0 1-391.401544 263.904561c-233.076772 0-422.031719-188.936982-422.031719-422.013754 0-213.602807 159.510456-392.802807 369.664-418.816 24.683789-3.054035 41.319298 24.522105 27.127018 44.930245z m-80.321122 24.827509l-0.449123 0.125755c-150.617825 45.630877-258.551018 185.649404-258.551018 348.932491 0 201.332772 163.211228 364.544 364.544 364.544 126.472982 0 240.891509-65.032982 306.750877-167.432983l3.539088-5.623017-9.377684 1.527017a386.784561 386.784561 0 0 1-47.786667 4.149895l-9.665123 0.125754c-212.399158 0-384.574877-172.175719-384.574877-384.574877 0-53.966596 11.138246-106.298386 32.211088-154.318596l3.359439-7.455439z m333.303017 246.92772l44.445193 44.445192-44.445193 44.427229-44.445193-44.427229 44.445193-44.445192zM644.940351 229.932912l79.458807 79.458807-79.458807 79.458807-79.440842-79.458807L644.940351 229.950877z" p-id="8795"></path></svg>