<?xml version="1.0" standalone="no"?><!DOCTYPE svg PUBLIC "-//W3C//DTD SVG 1.1//EN" "http://www.w3.org/Graphics/SVG/1.1/DTD/svg11.dtd"><svg t="1759765610750" class="icon" viewBox="0 0 1024 1024" version="1.1" xmlns="http://www.w3.org/2000/svg" p-id="3865" xmlns:xlink="http://www.w3.org/1999/xlink" width="32" height="32"><path d="M928 512a32 32 0 0 1-28.256 31.776L896 544H128a32 32 0 0 1-3.744-63.776L128 480h768a32 32 0 0 1 32 32z m-144.672-198.752c29.12 15.872 17.824 60.096-15.328 60.096H298.656a32 32 0 0 1-32-32v-256a32 32 0 0 1 47.36-28.096zM768 650.656c33.152 0 44.416 44.224 15.328 60.096l-469.344 256a32 32 0 0 1-47.328-28.096v-256a32 32 0 0 1 32-32zM642.528 309.312l-311.84-170.08v170.08h311.84z m0 405.344h-311.84v170.08l311.84-170.08z" fill="#2c2c2c" p-id="3866"></path></svg>