<?xml version="1.0" standalone="no"?><!DOCTYPE svg PUBLIC "-//W3C//DTD SVG 1.1//EN" "http://www.w3.org/Graphics/SVG/1.1/DTD/svg11.dtd"><svg t="1759765727376" class="icon" viewBox="0 0 1024 1024" version="1.1" xmlns="http://www.w3.org/2000/svg" p-id="4931" xmlns:xlink="http://www.w3.org/1999/xlink" width="32" height="32"><path d="M947.705503 942.806447H73.145731a41.471556 41.471556 0 0 0-42.056693 40.593851c0 22.308332 18.943797 40.593851 42.056693 40.593851h874.559772a41.398414 41.398414 0 0 0 42.056692-40.593851 41.398414 41.398414 0 0 0-42.056692-40.666993z m-104.885733-394.674628c0-176.857534-149.20983-320.874276-332.503866-320.874277-183.294036 0-332.577008 144.016743-332.577008 320.874277v460.502494h665.080874V548.131819z m-84.113385 379.241651H421.302V649.872443a41.471556 41.471556 0 0 0-42.129834-40.593851 41.471556 41.471556 0 0 0-42.056692 40.593851v277.501027H261.85228V548.131819c0-132.021443 111.395378-239.613433 248.390482-239.613433s248.317339 107.445706 248.317339 239.613433v379.241651zM510.53533 154.554321c23.112895 0 42.056692-18.285518 42.056692-40.593851V40.598971A41.471556 41.471556 0 0 0 510.53533 0.00512a41.471556 41.471556 0 0 0-42.129834 40.593851v73.361499c0 22.381474 18.870655 40.593851 42.129834 40.593851zM144.312968 361.9121a39.935572 39.935572 0 0 0-15.359835-55.441692l-65.827866-36.790463a43.007539 43.007539 0 0 0-57.48967 14.847841 39.935572 39.935572 0 0 0 15.359835 55.441691l65.827866 36.790463c6.729071 3.803388 13.896994 5.485656 21.064918 5.485656 14.555273 0 28.598551-7.314207 36.424752-20.333496z m848.521195-101.667483a43.153823 43.153823 0 0 0-31.889945 4.169099l-65.827866 36.790463a39.789288 39.789288 0 0 0-15.359835 55.441691c7.75306 13.019289 21.796338 20.333496 36.35161 20.333497a43.885244 43.885244 0 0 0 21.064918-5.485656l65.827866-36.790463a39.935572 39.935572 0 0 0 15.359835-55.441692 41.690982 41.690982 0 0 0-25.526583-19.016939z" fill="#2c2c2c" p-id="4932"></path></svg>